<?xml version="1.0" encoding="UTF-8" standalone="no"?><svg xmlns="http://www.w3.org/2000/svg" xmlns:xlink="http://www.w3.org/1999/xlink" contentStyleType="text/css" height="2042px" preserveAspectRatio="none" style="width:2427px;height:2042px;background:#FEFEFE;" version="1.1" viewBox="0 0 2427 2042" width="2427px" zoomAndPan="magnify"><defs/><g><ellipse cx="67" cy="48.6982" fill="#222222" rx="10" ry="10" style="stroke:#222222;stroke-width:1.0;"/><rect fill="#F1F1F1" height="33.9688" rx="5" ry="5" style="stroke:#181818;stroke-width:0.5;" width="92" x="21" y="78.6982"/><text fill="#000000" font-family="sans-serif" font-size="12" lengthAdjust="spacing" textLength="72" x="31" y="99.8369">输入研究课题</text><rect fill="#F1F1F1" height="33.9688" rx="5" ry="5" style="stroke:#181818;stroke-width:0.5;" width="92" x="21" y="1954.7637"/><text fill="#000000" font-family="sans-serif" font-size="12" lengthAdjust="spacing" textLength="72" x="31" y="1975.9023">接收研究报告</text><ellipse cx="67" cy="2019.7324" fill="none" rx="11" ry="11" style="stroke:#222222;stroke-width:1.0;"/><ellipse cx="67" cy="2019.7324" fill="#222222" rx="6" ry="6" style="stroke:#111111;stroke-width:1.0;"/><line style="stroke:#000000;stroke-width:1.5;" x1="15" x2="15" y1="12.7451" y2="2030.7324"/><path d="M291,122.667 L291,153.9326 L271,157.9326 L291,161.9326 L291,193.1982 A0,0 0 0 0 291,193.1982 L420,193.1982 A0,0 0 0 0 420,193.1982 L420,132.667 L410,122.667 L291,122.667 A0,0 0 0 0 291,122.667 " fill="#FEFFDD" style="stroke:#181818;stroke-width:0.5;"/><path d="M410,122.667 L410,132.667 L420,132.667 L410,122.667 " fill="#FEFFDD" style="stroke:#181818;stroke-width:0.5;"/><text fill="#000000" font-family="sans-serif" font-size="13" lengthAdjust="spacing" textLength="30" x="297" y="139.7339">输出:</text><text fill="#000000" font-family="sans-serif" font-size="13" lengthAdjust="spacing" textLength="108" x="297" y="154.8667">- 3-5组搜索关键词</text><text fill="#000000" font-family="sans-serif" font-size="13" lengthAdjust="spacing" textLength="61" x="297" y="169.9995">- 分析维度</text><text fill="#000000" font-family="sans-serif" font-size="13" lengthAdjust="spacing" textLength="61" x="297" y="185.1323">- 执行约束</text><rect fill="#F1F1F1" height="33.9688" rx="5" ry="5" style="stroke:#181818;stroke-width:0.5;" width="148" x="123" y="140.9482"/><text fill="#000000" font-family="sans-serif" font-size="12" lengthAdjust="spacing" textLength="128" x="133" y="162.0869">解析课题, 制定研究计划</text><line style="stroke:#000000;stroke-width:1.5;" x1="117" x2="117" y1="12.7451" y2="2030.7324"/><rect fill="#F1F1F1" height="33.9688" rx="5" ry="5" style="stroke:#181818;stroke-width:0.5;" width="92" x="431" y="257.1982"/><text fill="#000000" font-family="sans-serif" font-size="12" lengthAdjust="spacing" textLength="72" x="441" y="278.3369">用户审阅计划</text><polygon fill="#F1F1F1" points="477,213.1982,489,225.1982,477,237.1982,465,225.1982,477,213.1982" style="stroke:#181818;stroke-width:0.5;"/><polygon fill="#F1F1F1" points="463,321.167,491,321.167,503,333.167,491,345.167,463,345.167,451,333.167,463,321.167" style="stroke:#181818;stroke-width:0.5;"/><text fill="#000000" font-family="sans-serif" font-size="11" lengthAdjust="spacing" textLength="22" x="481" y="355.3774">通过</text><text fill="#000000" font-family="sans-serif" font-size="11" lengthAdjust="spacing" textLength="28" x="463" y="336.9751">审批?</text><text fill="#000000" font-family="sans-serif" font-size="11" lengthAdjust="spacing" textLength="22" x="503" y="330.5728">修改</text><rect fill="#F1F1F1" height="33.9688" rx="5" ry="5" style="stroke:#181818;stroke-width:0.5;" width="152" x="535" y="257.1982"/><text fill="#000000" font-family="sans-serif" font-size="12" lengthAdjust="spacing" textLength="132" x="545" y="278.3369">Orchestrator 修订计划</text><line style="stroke:#000000;stroke-width:1.5;" x1="425" x2="425" y1="12.7451" y2="2030.7324"/><rect fill="none" height="258.1406" rx="5" ry="5" style="stroke:#000000;stroke-width:1.5;" width="207" x="697" y="366.8774"/><path d="M833,366.8774 L833,376.1743 L823,386.1743 L697,386.1743 " fill="none" style="stroke:#000000;stroke-width:1.5;"/><text fill="#000000" font-family="sans-serif" font-size="14" lengthAdjust="spacing" textLength="126" x="700" y="380.8726">文献采集 (每篇论文)</text><rect fill="#F1F1F1" height="33.9688" rx="5" ry="5" style="stroke:#181818;stroke-width:0.5;" width="143" x="729" y="403.1743"/><text fill="#000000" font-family="sans-serif" font-size="12" lengthAdjust="spacing" textLength="123" x="739" y="424.313">Google Scholar 搜索</text><rect fill="#F1F1F1" height="33.9688" rx="5" ry="5" style="stroke:#181818;stroke-width:0.5;" width="106" x="747.5" y="457.1431"/><text fill="#000000" font-family="sans-serif" font-size="12" lengthAdjust="spacing" textLength="86" x="757.5" y="478.2817">wget 下载 PDF</text><rect fill="#F1F1F1" height="33.9688" rx="5" ry="5" style="stroke:#181818;stroke-width:0.5;" width="187" x="707" y="511.1118"/><text fill="#000000" font-family="sans-serif" font-size="12" lengthAdjust="spacing" textLength="167" x="717" y="532.2505">pdftotext OCR → Markdown</text><rect fill="#F1F1F1" height="47.9375" rx="5" ry="5" style="stroke:#181818;stroke-width:0.5;" width="155" x="723" y="565.0806"/><text fill="#000000" font-family="sans-serif" font-size="12" lengthAdjust="spacing" textLength="135" x="733" y="586.2192">add_article_for_graph</text><text fill="#000000" font-family="sans-serif" font-size="12" lengthAdjust="spacing" textLength="101" x="733" y="600.188">存入 ArticleStore</text><path d="M884.5,635.0181 L884.5,673.8501 L864.5,677.8501 L884.5,681.8501 L884.5,720.6821 A0,0 0 0 0 884.5,720.6821 L1073.5,720.6821 A0,0 0 0 0 1073.5,720.6821 L1073.5,645.0181 L1063.5,635.0181 L884.5,635.0181 A0,0 0 0 0 884.5,635.0181 " fill="#FEFFDD" style="stroke:#181818;stroke-width:0.5;"/><path d="M1063.5,635.0181 L1063.5,645.0181 L1073.5,645.0181 L1063.5,635.0181 " fill="#FEFFDD" style="stroke:#181818;stroke-width:0.5;"/><text fill="#000000" font-family="sans-serif" font-size="13" lengthAdjust="spacing" textLength="100" x="890.5" y="652.085">GraphRAG 内部:</text><text fill="#000000" font-family="sans-serif" font-size="13" lengthAdjust="spacing" textLength="168" x="890.5" y="667.2178">token chunking → 实体抽取</text><text fill="#000000" font-family="sans-serif" font-size="13" lengthAdjust="spacing" textLength="138" x="890.5" y="682.3506">→ 关系构建 → 社区检测</text><text fill="#000000" font-family="sans-serif" font-size="13" lengthAdjust="spacing" textLength="67" x="890.5" y="697.4834">→ 报告生成</text><text fill="#000000" font-family="sans-serif" font-size="13" lengthAdjust="spacing" textLength="156" x="890.5" y="712.6162">输出 Parquet + LanceDB</text><rect fill="#F1F1F1" height="47.9375" rx="5" ry="5" style="stroke:#181818;stroke-width:0.5;" width="128" x="736.5" y="653.8813"/><text fill="#000000" font-family="sans-serif" font-size="12" lengthAdjust="spacing" textLength="97" x="746.5" y="675.02">graphrag_index</text><text fill="#000000" font-family="sans-serif" font-size="12" lengthAdjust="spacing" textLength="108" x="746.5" y="688.9888">一次性构建知识图谱</text><rect fill="#F1F1F1" height="33.9688" rx="5" ry="5" style="stroke:#181818;stroke-width:0.5;" width="179" x="711" y="740.6821"/><text fill="#000000" font-family="sans-serif" font-size="12" lengthAdjust="spacing" textLength="159" x="721" y="761.8208">graphrag_search 抽查验证</text><line style="stroke:#000000;stroke-width:1.5;" x1="691" x2="691" y1="12.7451" y2="2030.7324"/><rect fill="#F1F1F1" height="33.9688" rx="5" ry="5" style="stroke:#181818;stroke-width:0.5;" width="227" x="1092" y="794.6509"/><text fill="#000000" font-family="sans-serif" font-size="12" lengthAdjust="spacing" textLength="207" x="1102" y="815.7896">graphrag_search(global) 领域概览</text><rect fill="#F1F1F1" height="33.9688" rx="5" ry="5" style="stroke:#181818;stroke-width:0.5;" width="242" x="1084.5" y="848.6196"/><text fill="#000000" font-family="sans-serif" font-size="12" lengthAdjust="spacing" textLength="222" x="1094.5" y="869.7583">graphrag_search(local) 深入关键概念</text><rect fill="#F1F1F1" height="33.9688" rx="5" ry="5" style="stroke:#181818;stroke-width:0.5;" width="169" x="1121" y="902.5884"/><text fill="#000000" font-family="sans-serif" font-size="12" lengthAdjust="spacing" textLength="149" x="1131" y="923.7271">graphrag_trace 溯源验证</text><path d="M1297.5,946.5571 L1297.5,977.8228 L1277.5,981.8228 L1297.5,985.8228 L1297.5,1017.0884 A0,0 0 0 0 1297.5,1017.0884 L1426.5,1017.0884 A0,0 0 0 0 1426.5,1017.0884 L1426.5,956.5571 L1416.5,946.5571 L1297.5,946.5571 A0,0 0 0 0 1297.5,946.5571 " fill="#FEFFDD" style="stroke:#181818;stroke-width:0.5;"/><path d="M1416.5,946.5571 L1416.5,956.5571 L1426.5,956.5571 L1416.5,946.5571 " fill="#FEFFDD" style="stroke:#181818;stroke-width:0.5;"/><text fill="#000000" font-family="sans-serif" font-size="13" lengthAdjust="spacing" textLength="82" x="1303.5" y="963.624">每条路线包含:</text><text fill="#000000" font-family="sans-serif" font-size="13" lengthAdjust="spacing" textLength="97" x="1303.5" y="978.7568">步骤 + 引用来源</text><text fill="#000000" font-family="sans-serif" font-size="13" lengthAdjust="spacing" textLength="108" x="1303.5" y="993.8896">可行性/创新性评估</text><text fill="#000000" font-family="sans-serif" font-size="13" lengthAdjust="spacing" textLength="92" x="1303.5" y="1009.0225">置信度 0-100%</text><rect fill="#F1F1F1" height="33.9688" rx="5" ry="5" style="stroke:#181818;stroke-width:0.5;" width="144" x="1133.5" y="964.8384"/><text fill="#000000" font-family="sans-serif" font-size="12" lengthAdjust="spacing" textLength="124" x="1143.5" y="985.9771">收敛为 2-3 条候选路线</text><line style="stroke:#000000;stroke-width:1.5;" x1="1078.5" x2="1078.5" y1="12.7451" y2="2030.7324"/><rect fill="#F1F1F1" height="33.9688" rx="5" ry="5" style="stroke:#181818;stroke-width:0.5;" width="205" x="1437.5" y="1037.0884"/><text fill="#000000" font-family="sans-serif" font-size="12" lengthAdjust="spacing" textLength="185" x="1447.5" y="1058.2271">graphrag_trace 引用真实性验证</text><rect fill="#F1F1F1" height="33.9688" rx="5" ry="5" style="stroke:#181818;stroke-width:0.5;" width="158" x="1461" y="1091.0571"/><text fill="#000000" font-family="sans-serif" font-size="12" lengthAdjust="spacing" textLength="138" x="1471" y="1112.1958">逻辑一致性 + 置信度校准</text><rect fill="#F1F1F1" height="33.9688" rx="5" ry="5" style="stroke:#181818;stroke-width:0.5;" width="179" x="1450.5" y="1145.0259"/><text fill="#000000" font-family="sans-serif" font-size="12" lengthAdjust="spacing" textLength="159" x="1460.5" y="1166.1646">graphrag_search 遗漏检查</text><rect fill="#F1F1F1" height="33.9688" rx="5" ry="5" style="stroke:#181818;stroke-width:0.5;" width="68" x="1506" y="1242.9946"/><text fill="#000000" font-family="sans-serif" font-size="12" lengthAdjust="spacing" textLength="48" x="1516" y="1264.1333">验证评估</text><polygon fill="#F1F1F1" points="1540,1198.9946,1552,1210.9946,1540,1222.9946,1528,1210.9946,1540,1198.9946" style="stroke:#181818;stroke-width:0.5;"/><polygon fill="#F1F1F1" points="1515,1306.9634,1565,1306.9634,1577,1318.9634,1565,1330.9634,1515,1330.9634,1503,1318.9634,1515,1306.9634" style="stroke:#181818;stroke-width:0.5;"/><text fill="#000000" font-family="sans-serif" font-size="11" lengthAdjust="spacing" textLength="64" x="1544" y="1341.1738">&lt;Approve&gt;</text><text fill="#000000" font-family="sans-serif" font-size="11" lengthAdjust="spacing" textLength="50" x="1515" y="1322.7715">验证通过?</text><text fill="#000000" font-family="sans-serif" font-size="11" lengthAdjust="spacing" textLength="52" x="1577" y="1316.3691">&lt;Reject&gt;</text><path d="M1816,1239.8462 L1816,1255.979 L1796,1259.979 L1816,1263.979 L1816,1280.1118 A0,0 0 0 0 1816,1280.1118 L2013,1280.1118 A0,0 0 0 0 2013,1280.1118 L2013,1249.8462 L2003,1239.8462 L1816,1239.8462 A0,0 0 0 0 1816,1239.8462 " fill="#FEFFDD" style="stroke:#181818;stroke-width:0.5;"/><path d="M2003,1239.8462 L2003,1249.8462 L2013,1249.8462 L2003,1239.8462 " fill="#FEFFDD" style="stroke:#181818;stroke-width:0.5;"/><text fill="#000000" font-family="sans-serif" font-size="13" lengthAdjust="spacing" textLength="172" x="1822" y="1256.9131">最多拒绝2次，第3次强制通过</text><text fill="#000000" font-family="sans-serif" font-size="13" lengthAdjust="spacing" textLength="176" x="1822" y="1272.0459">并将残余风险传递给 Reporter</text><rect fill="#F1F1F1" height="33.9688" rx="5" ry="5" style="stroke:#181818;stroke-width:0.5;" width="195" x="1601" y="1242.9946"/><text fill="#000000" font-family="sans-serif" font-size="12" lengthAdjust="spacing" textLength="175" x="1611" y="1264.1333">Analyzer 按 CriticFinding 修订</text><line style="stroke:#000000;stroke-width:1.5;" x1="1431.5" x2="1431.5" y1="12.7451" y2="2030.7324"/><rect fill="#F1F1F1" height="33.9688" rx="5" ry="5" style="stroke:#181818;stroke-width:0.5;" width="92" x="2049" y="1362.6738"/><text fill="#000000" font-family="sans-serif" font-size="12" lengthAdjust="spacing" textLength="72" x="2059" y="1383.8125">评估可执行性</text><rect fill="#F1F1F1" height="33.9688" rx="5" ry="5" style="stroke:#181818;stroke-width:0.5;" width="142" x="2024" y="1416.6426"/><text fill="#000000" font-family="sans-serif" font-size="12" lengthAdjust="spacing" textLength="122" x="2034" y="1437.7813">编写 &amp; 运行 PoC 代码</text><rect fill="#F1F1F1" height="33.9688" rx="5" ry="5" style="stroke:#181818;stroke-width:0.5;" width="92" x="2049" y="1470.6113"/><text fill="#000000" font-family="sans-serif" font-size="12" lengthAdjust="spacing" textLength="72" x="2059" y="1491.75">收集实验结果</text><line style="stroke:#000000;stroke-width:1.5;" x1="2018" x2="2018" y1="12.7451" y2="2030.7324"/><rect fill="#F1F1F1" height="33.9688" rx="5" ry="5" style="stroke:#181818;stroke-width:0.5;" width="227" x="2176" y="1524.5801"/><text fill="#000000" font-family="sans-serif" font-size="12" lengthAdjust="spacing" textLength="207" x="2186" y="1545.7188">graphrag_search(global) 全景综述</text><rect fill="#F1F1F1" height="33.9688" rx="5" ry="5" style="stroke:#181818;stroke-width:0.5;" width="218" x="2180.5" y="1578.5488"/><text fill="#000000" font-family="sans-serif" font-size="12" lengthAdjust="spacing" textLength="198" x="2190.5" y="1599.6875">graphrag_search(local) 补充细节</text><rect fill="#F1F1F1" height="33.9688" rx="5" ry="5" style="stroke:#181818;stroke-width:0.5;" width="193" x="2193" y="1632.5176"/><text fill="#000000" font-family="sans-serif" font-size="12" lengthAdjust="spacing" textLength="173" x="2203" y="1653.6563">graphrag_trace 关键引用溯源</text><rect fill="#F1F1F1" height="47.9375" rx="5" ry="5" style="stroke:#181818;stroke-width:0.5;" width="140" x="2219.5" y="1734.8887"/><text fill="#000000" font-family="sans-serif" font-size="12" lengthAdjust="spacing" textLength="120" x="2229.5" y="1756.0273">在报告中标注残余风险</text><text fill="#000000" font-family="sans-serif" font-size="12" lengthAdjust="spacing" textLength="106" x="2229.5" y="1769.9961">及 Critics 拒绝原因</text><polygon fill="#F1F1F1" points="2226,1686.4863,2353,1686.4863,2365,1698.4863,2353,1710.4863,2226,1710.4863,2214,1698.4863,2226,1686.4863" style="stroke:#181818;stroke-width:0.5;"/><text fill="#000000" font-family="sans-serif" font-size="11" lengthAdjust="spacing" textLength="11" x="2293.5" y="1720.6968">是</text><text fill="#000000" font-family="sans-serif" font-size="11" lengthAdjust="spacing" textLength="127" x="2226" y="1702.2944">存在强制通过的残余风险?</text><polygon fill="#F1F1F1" points="2289.5,1802.8262,2301.5,1814.8262,2289.5,1826.8262,2277.5,1814.8262,2289.5,1802.8262" style="stroke:#181818;stroke-width:0.5;"/><rect fill="#F1F1F1" height="33.9688" rx="5" ry="5" style="stroke:#181818;stroke-width:0.5;" width="128" x="2225.5" y="1846.8262"/><text fill="#000000" font-family="sans-serif" font-size="12" lengthAdjust="spacing" textLength="108" x="2235.5" y="1867.9648">撰写结构化研究报告</text><rect fill="#F1F1F1" height="33.9688" rx="5" ry="5" style="stroke:#181818;stroke-width:0.5;" width="225" x="2177" y="1900.7949"/><text fill="#000000" font-family="sans-serif" font-size="12" lengthAdjust="spacing" textLength="205" x="2187" y="1921.9336">写入 ai_science/output/report.md</text><line style="stroke:#000000;stroke-width:1.5;" x1="2170" x2="2170" y1="12.7451" y2="2030.7324"/><line style="stroke:#000000;stroke-width:1.5;" x1="2407" x2="2407" y1="12.7451" y2="2030.7324"/><line style="stroke:#181818;stroke-width:1.0;" x1="67" x2="67" y1="58.6982" y2="78.6982"/><polygon fill="#181818" points="63,68.6982,67,78.6982,71,68.6982,67,72.6982" style="stroke:#181818;stroke-width:1.0;"/><line style="stroke:#181818;stroke-width:1.0;" x1="67" x2="67" y1="1988.7324" y2="2008.7324"/><polygon fill="#181818" points="63,1998.7324,67,2008.7324,71,1998.7324,67,2002.7324" style="stroke:#181818;stroke-width:1.0;"/><line style="stroke:#181818;stroke-width:1.0;" x1="477" x2="477" y1="237.1982" y2="257.1982"/><polygon fill="#181818" points="473,247.1982,477,257.1982,481,247.1982,477,251.1982" style="stroke:#181818;stroke-width:1.0;"/><line style="stroke:#181818;stroke-width:1.0;" x1="503" x2="611" y1="333.167" y2="333.167"/><line style="stroke:#181818;stroke-width:1.0;" x1="611" x2="611" y1="291.167" y2="333.167"/><polygon fill="#181818" points="607,301.167,611,291.167,615,301.167,611,297.167" style="stroke:#181818;stroke-width:1.0;"/><line style="stroke:#181818;stroke-width:1.0;" x1="611" x2="611" y1="225.1982" y2="257.1982"/><line style="stroke:#181818;stroke-width:1.0;" x1="611" x2="489" y1="225.1982" y2="225.1982"/><polygon fill="#181818" points="499,221.1982,489,225.1982,499,229.1982,495,225.1982" style="stroke:#181818;stroke-width:1.0;"/><line style="stroke:#181818;stroke-width:1.0;" x1="477" x2="477" y1="291.167" y2="321.167"/><polygon fill="#181818" points="473,311.167,477,321.167,481,311.167,477,315.167" style="stroke:#181818;stroke-width:1.0;"/><line style="stroke:#181818;stroke-width:1.0;" x1="800.5" x2="800.5" y1="437.1431" y2="457.1431"/><polygon fill="#181818" points="796.5,447.1431,800.5,457.1431,804.5,447.1431,800.5,451.1431" style="stroke:#181818;stroke-width:1.0;"/><line style="stroke:#181818;stroke-width:1.0;" x1="800.5" x2="800.5" y1="491.1118" y2="511.1118"/><polygon fill="#181818" points="796.5,501.1118,800.5,511.1118,804.5,501.1118,800.5,505.1118" style="stroke:#181818;stroke-width:1.0;"/><line style="stroke:#181818;stroke-width:1.0;" x1="800.5" x2="800.5" y1="545.0806" y2="565.0806"/><polygon fill="#181818" points="796.5,555.0806,800.5,565.0806,804.5,555.0806,800.5,559.0806" style="stroke:#181818;stroke-width:1.0;"/><line style="stroke:#181818;stroke-width:1.0;" x1="800.5" x2="800.5" y1="613.0181" y2="653.8813"/><polygon fill="#181818" points="796.5,643.8813,800.5,653.8813,804.5,643.8813,800.5,647.8813" style="stroke:#181818;stroke-width:1.0;"/><line style="stroke:#181818;stroke-width:1.0;" x1="800.5" x2="800.5" y1="701.8188" y2="740.6821"/><polygon fill="#181818" points="796.5,730.6821,800.5,740.6821,804.5,730.6821,800.5,734.6821" style="stroke:#181818;stroke-width:1.0;"/><line style="stroke:#181818;stroke-width:1.0;" x1="1205.5" x2="1205.5" y1="828.6196" y2="848.6196"/><polygon fill="#181818" points="1201.5,838.6196,1205.5,848.6196,1209.5,838.6196,1205.5,842.6196" style="stroke:#181818;stroke-width:1.0;"/><line style="stroke:#181818;stroke-width:1.0;" x1="1205.5" x2="1205.5" y1="882.5884" y2="902.5884"/><polygon fill="#181818" points="1201.5,892.5884,1205.5,902.5884,1209.5,892.5884,1205.5,896.5884" style="stroke:#181818;stroke-width:1.0;"/><line style="stroke:#181818;stroke-width:1.0;" x1="1205.5" x2="1205.5" y1="936.5571" y2="964.8384"/><polygon fill="#181818" points="1201.5,954.8384,1205.5,964.8384,1209.5,954.8384,1205.5,958.8384" style="stroke:#181818;stroke-width:1.0;"/><line style="stroke:#181818;stroke-width:1.0;" x1="1540" x2="1540" y1="1071.0571" y2="1091.0571"/><polygon fill="#181818" points="1536,1081.0571,1540,1091.0571,1544,1081.0571,1540,1085.0571" style="stroke:#181818;stroke-width:1.0;"/><line style="stroke:#181818;stroke-width:1.0;" x1="1540" x2="1540" y1="1125.0259" y2="1145.0259"/><polygon fill="#181818" points="1536,1135.0259,1540,1145.0259,1544,1135.0259,1540,1139.0259" style="stroke:#181818;stroke-width:1.0;"/><line style="stroke:#181818;stroke-width:1.0;" x1="1540" x2="1540" y1="1222.9946" y2="1242.9946"/><polygon fill="#181818" points="1536,1232.9946,1540,1242.9946,1544,1232.9946,1540,1236.9946" style="stroke:#181818;stroke-width:1.0;"/><line style="stroke:#181818;stroke-width:1.0;" x1="1577" x2="1698.5" y1="1318.9634" y2="1318.9634"/><line style="stroke:#181818;stroke-width:1.0;" x1="1698.5" x2="1698.5" y1="1276.9634" y2="1318.9634"/><polygon fill="#181818" points="1694.5,1286.9634,1698.5,1276.9634,1702.5,1286.9634,1698.5,1282.9634" style="stroke:#181818;stroke-width:1.0;"/><line style="stroke:#181818;stroke-width:1.0;" x1="1698.5" x2="1698.5" y1="1210.9946" y2="1242.9946"/><line style="stroke:#181818;stroke-width:1.0;" x1="1698.5" x2="1552" y1="1210.9946" y2="1210.9946"/><polygon fill="#181818" points="1562,1206.9946,1552,1210.9946,1562,1214.9946,1558,1210.9946" style="stroke:#181818;stroke-width:1.0;"/><line style="stroke:#181818;stroke-width:1.0;" x1="1540" x2="1540" y1="1276.9634" y2="1306.9634"/><polygon fill="#181818" points="1536,1296.9634,1540,1306.9634,1544,1296.9634,1540,1300.9634" style="stroke:#181818;stroke-width:1.0;"/><line style="stroke:#181818;stroke-width:1.0;" x1="1540" x2="1540" y1="1178.9946" y2="1198.9946"/><polygon fill="#181818" points="1536,1188.9946,1540,1198.9946,1544,1188.9946,1540,1192.9946" style="stroke:#181818;stroke-width:1.0;"/><line style="stroke:#181818;stroke-width:1.0;" x1="2095" x2="2095" y1="1396.6426" y2="1416.6426"/><polygon fill="#181818" points="2091,1406.6426,2095,1416.6426,2099,1406.6426,2095,1410.6426" style="stroke:#181818;stroke-width:1.0;"/><line style="stroke:#181818;stroke-width:1.0;" x1="2095" x2="2095" y1="1450.6113" y2="1470.6113"/><polygon fill="#181818" points="2091,1460.6113,2095,1470.6113,2099,1460.6113,2095,1464.6113" style="stroke:#181818;stroke-width:1.0;"/><line style="stroke:#181818;stroke-width:1.0;" x1="2289.5" x2="2289.5" y1="1558.5488" y2="1578.5488"/><polygon fill="#181818" points="2285.5,1568.5488,2289.5,1578.5488,2293.5,1568.5488,2289.5,1572.5488" style="stroke:#181818;stroke-width:1.0;"/><line style="stroke:#181818;stroke-width:1.0;" x1="2289.5" x2="2289.5" y1="1612.5176" y2="1632.5176"/><polygon fill="#181818" points="2285.5,1622.5176,2289.5,1632.5176,2293.5,1622.5176,2289.5,1626.5176" style="stroke:#181818;stroke-width:1.0;"/><line style="stroke:#181818;stroke-width:1.0;" x1="2289.5" x2="2289.5" y1="1710.4863" y2="1734.8887"/><polygon fill="#181818" points="2285.5,1724.8887,2289.5,1734.8887,2293.5,1724.8887,2289.5,1728.8887" style="stroke:#181818;stroke-width:1.0;"/><line style="stroke:#181818;stroke-width:1.0;" x1="2365" x2="2377" y1="1698.4863" y2="1698.4863"/><polygon fill="#181818" points="2373,1748.8574,2377,1758.8574,2381,1748.8574,2377,1752.8574" style="stroke:#181818;stroke-width:1.0;"/><line style="stroke:#181818;stroke-width:1.0;" x1="2377" x2="2377" y1="1698.4863" y2="1814.8262"/><line style="stroke:#181818;stroke-width:1.0;" x1="2377" x2="2301.5" y1="1814.8262" y2="1814.8262"/><polygon fill="#181818" points="2311.5,1810.8262,2301.5,1814.8262,2311.5,1818.8262,2307.5,1814.8262" style="stroke:#181818;stroke-width:1.0;"/><line style="stroke:#181818;stroke-width:1.0;" x1="2289.5" x2="2289.5" y1="1782.8262" y2="1802.8262"/><polygon fill="#181818" points="2285.5,1792.8262,2289.5,1802.8262,2293.5,1792.8262,2289.5,1796.8262" style="stroke:#181818;stroke-width:1.0;"/><line style="stroke:#181818;stroke-width:1.0;" x1="2289.5" x2="2289.5" y1="1666.4863" y2="1686.4863"/><polygon fill="#181818" points="2285.5,1676.4863,2289.5,1686.4863,2293.5,1676.4863,2289.5,1680.4863" style="stroke:#181818;stroke-width:1.0;"/><line style="stroke:#181818;stroke-width:1.0;" x1="2289.5" x2="2289.5" y1="1826.8262" y2="1846.8262"/><polygon fill="#181818" points="2285.5,1836.8262,2289.5,1846.8262,2293.5,1836.8262,2289.5,1840.8262" style="stroke:#181818;stroke-width:1.0;"/><line style="stroke:#181818;stroke-width:1.0;" x1="2289.5" x2="2289.5" y1="1880.7949" y2="1900.7949"/><polygon fill="#181818" points="2285.5,1890.7949,2289.5,1900.7949,2293.5,1890.7949,2289.5,1894.7949" style="stroke:#181818;stroke-width:1.0;"/><line style="stroke:#181818;stroke-width:1.0;" x1="67" x2="67" y1="112.667" y2="117.667"/><line style="stroke:#181818;stroke-width:1.0;" x1="67" x2="197" y1="117.667" y2="117.667"/><line style="stroke:#181818;stroke-width:1.0;" x1="197" x2="197" y1="117.667" y2="140.9482"/><polygon fill="#181818" points="193,130.9482,197,140.9482,201,130.9482,197,134.9482" style="stroke:#181818;stroke-width:1.0;"/><line style="stroke:#181818;stroke-width:1.0;" x1="197" x2="197" y1="174.917" y2="198.1982"/><line style="stroke:#181818;stroke-width:1.0;" x1="197" x2="477" y1="198.1982" y2="198.1982"/><line style="stroke:#181818;stroke-width:1.0;" x1="477" x2="477" y1="198.1982" y2="213.1982"/><polygon fill="#181818" points="473,203.1982,477,213.1982,481,203.1982,477,207.1982" style="stroke:#181818;stroke-width:1.0;"/><line style="stroke:#181818;stroke-width:1.0;" x1="477" x2="477" y1="345.167" y2="367.5259"/><line style="stroke:#181818;stroke-width:1.0;" x1="477" x2="800.5" y1="367.5259" y2="367.5259"/><line style="stroke:#181818;stroke-width:1.0;" x1="800.5" x2="800.5" y1="367.5259" y2="403.1743"/><polygon fill="#181818" points="796.5,393.1743,800.5,403.1743,804.5,393.1743,800.5,397.1743" style="stroke:#181818;stroke-width:1.0;"/><line style="stroke:#181818;stroke-width:1.0;" x1="800.5" x2="800.5" y1="774.6509" y2="779.6509"/><line style="stroke:#181818;stroke-width:1.0;" x1="800.5" x2="1205.5" y1="779.6509" y2="779.6509"/><line style="stroke:#181818;stroke-width:1.0;" x1="1205.5" x2="1205.5" y1="779.6509" y2="794.6509"/><polygon fill="#181818" points="1201.5,784.6509,1205.5,794.6509,1209.5,784.6509,1205.5,788.6509" style="stroke:#181818;stroke-width:1.0;"/><line style="stroke:#181818;stroke-width:1.0;" x1="1205.5" x2="1205.5" y1="998.8071" y2="1022.0884"/><line style="stroke:#181818;stroke-width:1.0;" x1="1205.5" x2="1540" y1="1022.0884" y2="1022.0884"/><line style="stroke:#181818;stroke-width:1.0;" x1="1540" x2="1540" y1="1022.0884" y2="1037.0884"/><polygon fill="#181818" points="1536,1027.0884,1540,1037.0884,1544,1027.0884,1540,1031.0884" style="stroke:#181818;stroke-width:1.0;"/><line style="stroke:#181818;stroke-width:1.0;" x1="1540" x2="1540" y1="1330.9634" y2="1347.6738"/><line style="stroke:#181818;stroke-width:1.0;" x1="1540" x2="2095" y1="1347.6738" y2="1347.6738"/><line style="stroke:#181818;stroke-width:1.0;" x1="2095" x2="2095" y1="1347.6738" y2="1362.6738"/><polygon fill="#181818" points="2091,1352.6738,2095,1362.6738,2099,1352.6738,2095,1356.6738" style="stroke:#181818;stroke-width:1.0;"/><line style="stroke:#181818;stroke-width:1.0;" x1="2095" x2="2095" y1="1504.5801" y2="1509.5801"/><line style="stroke:#181818;stroke-width:1.0;" x1="2095" x2="2289.5" y1="1509.5801" y2="1509.5801"/><line style="stroke:#181818;stroke-width:1.0;" x1="2289.5" x2="2289.5" y1="1509.5801" y2="1524.5801"/><polygon fill="#181818" points="2285.5,1514.5801,2289.5,1524.5801,2293.5,1514.5801,2289.5,1518.5801" style="stroke:#181818;stroke-width:1.0;"/><line style="stroke:#181818;stroke-width:1.0;" x1="2289.5" x2="2289.5" y1="1934.7637" y2="1939.7637"/><line style="stroke:#181818;stroke-width:1.0;" x1="2289.5" x2="67" y1="1939.7637" y2="1939.7637"/><line style="stroke:#181818;stroke-width:1.0;" x1="67" x2="67" y1="1939.7637" y2="1954.7637"/><polygon fill="#181818" points="63,1944.7637,67,1954.7637,71,1944.7637,67,1948.7637" style="stroke:#181818;stroke-width:1.0;"/><text fill="#000000" font-family="sans-serif" font-size="18" lengthAdjust="spacing" textLength="41" x="45.5" y="29.4531">User</text><text fill="#000000" font-family="sans-serif" font-size="18" lengthAdjust="spacing" textLength="112" x="215" y="29.4531">Orchestrator</text><text fill="#000000" font-family="sans-serif" font-size="18" lengthAdjust="spacing" textLength="129" x="493.5" y="29.4531">Plan Reviewer</text><text fill="#000000" font-family="sans-serif" font-size="18" lengthAdjust="spacing" textLength="76" x="846.75" y="29.4531">Explorer</text><text fill="#000000" font-family="sans-serif" font-size="18" lengthAdjust="spacing" textLength="77" x="1216.5" y="29.4531">Analyzer</text><text fill="#000000" font-family="sans-serif" font-size="18" lengthAdjust="spacing" textLength="55" x="1697.25" y="29.4531">Critics</text><text fill="#000000" font-family="sans-serif" font-size="18" lengthAdjust="spacing" textLength="79" x="2054.5" y="29.4531">Executor</text><text fill="#000000" font-family="sans-serif" font-size="18" lengthAdjust="spacing" textLength="80" x="2248.5" y="29.4531">Reporter</text><!--MD5=[17e890fb7870e859922a0cdc3dbacd55]
@startuml
skinparam backgroundColor #FEFEFE
skinparam roundcorner 10

|User|
start
:输入研究课题;

|Orchestrator|
:解析课题, 制定研究计划;
note right
  输出:
  - 3-5组搜索关键词
  - 分析维度
  - 执行约束
end note

|Plan Reviewer|
repeat
  :用户审阅计划;
backward :Orchestrator 修订计划;
repeat while (审批?) is (修改) not (通过)

|Explorer|
partition "文献采集 (每篇论文)" {
  :Google Scholar 搜索;
  :wget 下载 PDF;
  :pdftotext OCR → Markdown;
  :add_article_for_graph\n存入 ArticleStore;
}
:graphrag_index\n一次性构建知识图谱;
note right
  GraphRAG 内部:
  token chunking → 实体抽取
  → 关系构建 → 社区检测
  → 报告生成
  输出 Parquet + LanceDB
end note
:graphrag_search 抽查验证;

|Analyzer|
:graphrag_search(global) 领域概览;
:graphrag_search(local) 深入关键概念;
:graphrag_trace 溯源验证;
:收敛为 2-3 条候选路线;
note right
  每条路线包含:
  步骤 + 引用来源
  可行性/创新性评估
  置信度 0-100%
end note

|Critics|
:graphrag_trace 引用真实性验证;
:逻辑一致性 + 置信度校准;
:graphrag_search 遗漏检查;
repeat
  :验证评估;
backward :Analyzer 按 CriticFinding 修订;
repeat while (验证通过?) is (<Reject>) not (<Approve>)
note right: 最多拒绝2次，第3次强制通过\n并将残余风险传递给 Reporter

|Executor|
:评估可执行性;
:编写 & 运行 PoC 代码;
:收集实验结果;

|Reporter|
:graphrag_search(global) 全景综述;
:graphrag_search(local) 补充细节;
:graphrag_trace 关键引用溯源;
if (存在强制通过的残余风险?) then (是)
  :在报告中标注残余风险\n及 Critics 拒绝原因;
endif
:撰写结构化研究报告;
:写入 ai_science/output/report.md;

|User|
:接收研究报告;
stop
@enduml

PlantUML version 1.2022.7(Mon Aug 22 17:01:30 UTC 2022)
(GPL source distribution)
Java Runtime: OpenJDK Runtime Environment
JVM: OpenJDK 64-Bit Server VM
Default Encoding: UTF-8
Language: en
Country: null
--></g></svg>